<svg width="218" height="49" viewBox="0 0 218 49" fill="none" xmlns="http://www.w3.org/2000/svg">
<path d="M2 0V31H11V22.5H20.5C33.5 22.5 33.5 0 20.5 0H2Z" fill="white"/>
<path d="M39 0L29 31H39L41 25H51.5L53 31H63L53 0H39Z" fill="white"/>
<path d="M66 0V31H83.5C102 31 101.5 0 83 0H66Z" fill="white"/>
<path d="M100.5 0V31H110V0H100.5Z" fill="white"/>
<path d="M122.5 31H113.5V0H122.5V12H126L134.5 0H145.5L134 15L146.5 31H135.5L126 18.5H122.5V31Z" fill="white"/>
<path d="M167 25.5L165 31L158.5 22.5L166 0H180L190 31H180.5L178.5 25.5H167Z" fill="white"/>
<path d="M192.5 31V0H201.5V24H217.5V31H192.5Z" fill="white"/>
<path d="M11 6V16H20C24 16 23.5 6 20 6H11Z" fill="#0A2538"/>
<path d="M51 19H42L46 6H47L51 19Z" fill="#0A2538"/>
<path d="M75.5 24V6H85.5C87.1959 7.02158 87.9901 7.7553 88.5 10V21C87.7278 22.7912 87.0585 23.4287 85.5 24H75.5Z" fill="#0A2538"/>
<path d="M177.5 19H169L172.5 6H174.5L177.5 19Z" fill="#0A2538"/>
<path d="M11 6V16H20C24 16 23.5 6 20 6H11Z" stroke="#0A2538"/>
<path d="M51 19H42L46 6H47L51 19Z" stroke="#0A2538"/>
<path d="M75.5 24V6H85.5C87.1959 7.02158 87.9901 7.7553 88.5 10V21C87.7278 22.7912 87.0585 23.4287 85.5 24H75.5Z" stroke="#0A2538"/>
<path d="M177.5 19H169L172.5 6H174.5L177.5 19Z" stroke="#0A2538"/>
<path d="M151 0.5H161.5L150 15.5L162.5 32H152L140 15.5L151 0.5Z" fill="#EE3338"/>
<path d="M0.616477 36.6406V35.3182H8.49645V36.6406H5.3196V45.5H3.78835V36.6406H0.616477ZM9.32546 45.5V37.8636H10.7623V39.0767H10.8418C10.981 38.6657 11.2263 38.3426 11.5776 38.1072C11.9322 37.8686 12.3333 37.7493 12.7807 37.7493C12.8735 37.7493 12.9829 37.7526 13.1088 37.7592C13.2381 37.7659 13.3392 37.7741 13.4121 37.7841V39.206C13.3525 39.1894 13.2464 39.1712 13.0939 39.1513C12.9415 39.1281 12.789 39.1165 12.6365 39.1165C12.2852 39.1165 11.972 39.1911 11.6969 39.3402C11.4251 39.486 11.2097 39.6899 11.0506 39.9517C10.8915 40.2102 10.812 40.5052 10.812 40.8366V45.5H9.32546ZM16.8525 45.669C16.3685 45.669 15.931 45.5795 15.54 45.4006C15.1489 45.2183 14.839 44.9548 14.6103 44.6101C14.3849 44.2654 14.2722 43.8428 14.2722 43.3423C14.2722 42.9115 14.3551 42.5568 14.5208 42.2784C14.6865 42 14.9102 41.7796 15.1919 41.6172C15.4737 41.4548 15.7885 41.3321 16.1365 41.2493C16.4846 41.1664 16.8392 41.1035 17.2005 41.0604C17.6578 41.0073 18.0291 40.9643 18.3141 40.9311C18.5991 40.8946 18.8063 40.8366 18.9355 40.7571C19.0648 40.6776 19.1294 40.5483 19.1294 40.3693V40.3345C19.1294 39.9003 19.0068 39.5639 18.7615 39.3253C18.5196 39.0866 18.1583 38.9673 17.6777 38.9673C17.1773 38.9673 16.7828 39.0784 16.4945 39.3004C16.2095 39.5192 16.0123 39.7628 15.9029 40.0312L14.5059 39.7131C14.6716 39.2491 14.9135 38.8745 15.2317 38.5895C15.5532 38.3011 15.9228 38.0923 16.3404 37.9631C16.758 37.8305 17.1971 37.7642 17.6578 37.7642C17.9628 37.7642 18.2859 37.8007 18.6273 37.8736C18.972 37.9432 19.2935 38.0724 19.5918 38.2614C19.8934 38.4503 20.1403 38.7204 20.3326 39.0717C20.5248 39.4197 20.6209 39.8722 20.6209 40.429V45.5H19.1692V44.456H19.1096C19.0134 44.6482 18.8693 44.8371 18.677 45.0227C18.4848 45.2083 18.2379 45.3625 17.9363 45.4851C17.6346 45.6077 17.2734 45.669 16.8525 45.669ZM17.1756 44.4759C17.5866 44.4759 17.9379 44.3946 18.2296 44.2322C18.5246 44.0698 18.7483 43.8577 18.9007 43.5959C19.0565 43.3307 19.1344 43.0473 19.1344 42.7457V41.7614C19.0814 41.8144 18.9786 41.8641 18.8262 41.9105C18.677 41.9536 18.5063 41.9917 18.3141 42.0249C18.1219 42.0547 17.9346 42.0829 17.7523 42.1094C17.57 42.1326 17.4176 42.1525 17.2949 42.169C17.0066 42.2055 16.7431 42.2668 16.5044 42.353C16.2691 42.4392 16.0802 42.5634 15.9377 42.7259C15.7985 42.8849 15.7289 43.0971 15.7289 43.3622C15.7289 43.7301 15.8648 44.0085 16.1365 44.1974C16.4083 44.383 16.7547 44.4759 17.1756 44.4759ZM28.8601 37.8636L26.0909 45.5H24.5L21.7259 37.8636H23.3217L25.2557 43.7401H25.3352L27.2642 37.8636H28.8601ZM33.2885 45.6541C32.5362 45.6541 31.8882 45.4934 31.3446 45.1719C30.8044 44.8471 30.3868 44.3913 30.0918 43.8047C29.8001 43.2147 29.6543 42.5237 29.6543 41.7315C29.6543 40.9493 29.8001 40.2599 30.0918 39.6634C30.3868 39.0668 30.7978 38.6011 31.3248 38.2663C31.8551 37.9316 32.4748 37.7642 33.1841 37.7642C33.615 37.7642 34.0326 37.8355 34.437 37.978C34.8413 38.1205 35.2042 38.3442 35.5257 38.6491C35.8472 38.9541 36.1008 39.3501 36.2864 39.8374C36.472 40.3213 36.5648 40.9096 36.5648 41.6023V42.1293H30.4945V41.0156H35.1081C35.1081 40.6245 35.0286 40.2782 34.8695 39.9766C34.7104 39.6716 34.4867 39.4313 34.1983 39.2557C33.9133 39.08 33.5785 38.9922 33.1941 38.9922C32.7765 38.9922 32.4119 39.0949 32.1003 39.3004C31.7921 39.5026 31.5534 39.7678 31.3844 40.0959C31.2187 40.4207 31.1358 40.7737 31.1358 41.1548V42.0249C31.1358 42.5353 31.2253 42.9695 31.4043 43.3274C31.5866 43.6854 31.8401 43.9588 32.165 44.1477C32.4898 44.3333 32.8693 44.4261 33.3034 44.4261C33.5852 44.4261 33.842 44.3864 34.074 44.3068C34.306 44.224 34.5066 44.1013 34.6756 43.9389C34.8446 43.7765 34.9739 43.576 35.0634 43.3374L36.4703 43.5909C36.3577 44.0052 36.1555 44.3681 35.8638 44.6797C35.5755 44.9879 35.2125 45.2282 34.775 45.4006C34.3408 45.5696 33.8453 45.6541 33.2885 45.6541ZM39.7006 35.3182V45.5H38.2141V35.3182H39.7006ZM47.4228 39.728L46.0755 39.9666C46.0191 39.7943 45.9296 39.6302 45.807 39.4744C45.6877 39.3187 45.5253 39.1911 45.3198 39.0916C45.1143 38.9922 44.8574 38.9425 44.5492 38.9425C44.1283 38.9425 43.7769 39.0369 43.4952 39.2259C43.2135 39.4115 43.0726 39.6518 43.0726 39.9467C43.0726 40.2019 43.1671 40.4074 43.356 40.5632C43.5449 40.719 43.8498 40.8466 44.2708 40.946L45.4838 41.2244C46.1865 41.3868 46.7102 41.6371 47.0549 41.9751C47.3996 42.3132 47.5719 42.7524 47.5719 43.2926C47.5719 43.75 47.4393 44.1577 47.1742 44.5156C46.9123 44.8703 46.5461 45.1487 46.0755 45.3509C45.6081 45.553 45.0662 45.6541 44.4498 45.6541C43.5946 45.6541 42.897 45.4718 42.3567 45.1072C41.8165 44.7393 41.485 44.2173 41.3624 43.5412L42.7992 43.3224C42.8887 43.697 43.0726 43.9804 43.351 44.1726C43.6294 44.3615 43.9924 44.456 44.4398 44.456C44.927 44.456 45.3165 44.3549 45.6081 44.1527C45.8998 43.9472 46.0456 43.697 46.0456 43.402C46.0456 43.1634 45.9561 42.9628 45.7772 42.8004C45.6015 42.638 45.3314 42.5154 44.9668 42.4325L43.6742 42.1491C42.9616 41.9867 42.4346 41.7282 42.0932 41.3736C41.7551 41.0189 41.5861 40.5698 41.5861 40.0263C41.5861 39.5755 41.7121 39.1811 41.964 38.843C42.2158 38.505 42.5639 38.2415 43.008 38.0526C43.4521 37.8603 43.9609 37.7642 44.5343 37.7642C45.3596 37.7642 46.0092 37.9432 46.4831 38.3011C46.9571 38.6558 47.2703 39.1314 47.4228 39.728ZM53.0307 45.5V35.3182H56.66C57.4521 35.3182 58.1084 35.4624 58.6287 35.7507C59.1491 36.0391 59.5385 36.4335 59.7971 36.9339C60.0556 37.4311 60.1848 37.9912 60.1848 38.6143C60.1848 39.2408 60.0539 39.8042 59.7921 40.3047C59.5336 40.8018 59.1425 41.1963 58.6188 41.4879C58.0984 41.7763 57.4438 41.9205 56.655 41.9205H54.1593V40.6179H56.5158C57.0163 40.6179 57.4223 40.5317 57.7338 40.3594C58.0454 40.1837 58.2741 39.9451 58.4199 39.6435C58.5658 39.3419 58.6387 38.9988 58.6387 38.6143C58.6387 38.2299 58.5658 37.8885 58.4199 37.5902C58.2741 37.2919 58.0437 37.0582 57.7289 36.8892C57.4173 36.7202 57.0063 36.6357 56.4959 36.6357H54.5669V45.5H53.0307ZM61.8665 45.5V37.8636H63.3033V39.0767H63.3828C63.522 38.6657 63.7673 38.3426 64.1186 38.1072C64.4732 37.8686 64.8743 37.7493 65.3217 37.7493C65.4145 37.7493 65.5239 37.7526 65.6499 37.7592C65.7791 37.7659 65.8802 37.7741 65.9531 37.7841V39.206C65.8935 39.1894 65.7874 39.1712 65.6349 39.1513C65.4825 39.1281 65.33 39.1165 65.1776 39.1165C64.8262 39.1165 64.513 39.1911 64.2379 39.3402C63.9661 39.486 63.7507 39.6899 63.5916 39.9517C63.4325 40.2102 63.353 40.5052 63.353 40.8366V45.5H61.8665ZM67.2395 45.5V37.8636H68.726V45.5H67.2395ZM67.9902 36.6854C67.7317 36.6854 67.5096 36.5992 67.324 36.4268C67.1417 36.2512 67.0506 36.0424 67.0506 35.8004C67.0506 35.5552 67.1417 35.3464 67.324 35.174C67.5096 34.9983 67.7317 34.9105 67.9902 34.9105C68.2488 34.9105 68.4692 34.9983 68.6515 35.174C68.8371 35.3464 68.9299 35.5552 68.9299 35.8004C68.9299 36.0424 68.8371 36.2512 68.6515 36.4268C68.4692 36.5992 68.2488 36.6854 67.9902 36.6854ZM77.2585 37.8636L74.4893 45.5H72.8984L70.1243 37.8636H71.7202L73.6541 43.7401H73.7337L75.6626 37.8636H77.2585ZM80.6591 45.669C80.1752 45.669 79.7377 45.5795 79.3466 45.4006C78.9555 45.2183 78.6456 44.9548 78.4169 44.6101C78.1915 44.2654 78.0788 43.8428 78.0788 43.3423C78.0788 42.9115 78.1617 42.5568 78.3274 42.2784C78.4931 42 78.7169 41.7796 78.9986 41.6172C79.2803 41.4548 79.5952 41.3321 79.9432 41.2493C80.2912 41.1664 80.6458 41.1035 81.0071 41.0604C81.4645 41.0073 81.8357 40.9643 82.1207 40.9311C82.4058 40.8946 82.6129 40.8366 82.7422 40.7571C82.8714 40.6776 82.9361 40.5483 82.9361 40.3693V40.3345C82.9361 39.9003 82.8134 39.5639 82.5682 39.3253C82.3262 39.0866 81.965 38.9673 81.4844 38.9673C80.9839 38.9673 80.5895 39.0784 80.3011 39.3004C80.0161 39.5192 79.8189 39.7628 79.7095 40.0312L78.3125 39.7131C78.4782 39.2491 78.7202 38.8745 79.0384 38.5895C79.3598 38.3011 79.7294 38.0923 80.147 37.9631C80.5646 37.8305 81.0038 37.7642 81.4645 37.7642C81.7694 37.7642 82.0926 37.8007 82.4339 37.8736C82.7786 37.9432 83.1001 38.0724 83.3984 38.2614C83.7 38.4503 83.947 38.7204 84.1392 39.0717C84.3314 39.4197 84.4276 39.8722 84.4276 40.429V45.5H82.9759V44.456H82.9162C82.8201 44.6482 82.6759 44.8371 82.4837 45.0227C82.2914 45.2083 82.0445 45.3625 81.7429 45.4851C81.4413 45.6077 81.08 45.669 80.6591 45.669ZM80.9822 44.4759C81.3932 44.4759 81.7446 44.3946 82.0362 44.2322C82.3312 44.0698 82.5549 43.8577 82.7074 43.5959C82.8632 43.3307 82.9411 43.0473 82.9411 42.7457V41.7614C82.888 41.8144 82.7853 41.8641 82.6328 41.9105C82.4837 41.9536 82.313 41.9917 82.1207 42.0249C81.9285 42.0547 81.7412 42.0829 81.5589 42.1094C81.3767 42.1326 81.2242 42.1525 81.1016 42.169C80.8132 42.2055 80.5497 42.2668 80.3111 42.353C80.0758 42.4392 79.8868 42.5634 79.7443 42.7259C79.6051 42.8849 79.5355 43.0971 79.5355 43.3622C79.5355 43.7301 79.6714 44.0085 79.9432 44.1974C80.215 44.383 80.5613 44.4759 80.9822 44.4759ZM89.9721 37.8636V39.0568H85.801V37.8636H89.9721ZM86.9196 36.0341H88.4061V43.2578C88.4061 43.5462 88.4492 43.7633 88.5353 43.9091C88.6215 44.0516 88.7325 44.1494 88.8684 44.2024C89.0076 44.2521 89.1584 44.277 89.3208 44.277C89.4402 44.277 89.5446 44.2687 89.6341 44.2521C89.7235 44.2356 89.7931 44.2223 89.8429 44.2124L90.1113 45.4403C90.0252 45.4735 89.9025 45.5066 89.7434 45.5398C89.5843 45.5762 89.3855 45.5961 89.1468 45.5994C88.7557 45.6061 88.3912 45.5365 88.0531 45.3906C87.715 45.2448 87.4416 45.0194 87.2328 44.7145C87.024 44.4096 86.9196 44.0268 86.9196 43.5661V36.0341ZM94.8256 45.6541C94.0733 45.6541 93.4253 45.4934 92.8817 45.1719C92.3415 44.8471 91.9239 44.3913 91.6289 43.8047C91.3372 43.2147 91.1914 42.5237 91.1914 41.7315C91.1914 40.9493 91.3372 40.2599 91.6289 39.6634C91.9239 39.0668 92.3349 38.6011 92.8619 38.2663C93.3922 37.9316 94.012 37.7642 94.7212 37.7642C95.1521 37.7642 95.5697 37.8355 95.9741 37.978C96.3784 38.1205 96.7414 38.3442 97.0629 38.6491C97.3844 38.9541 97.6379 39.3501 97.8235 39.8374C98.0091 40.3213 98.1019 40.9096 98.1019 41.6023V42.1293H92.0316V41.0156H96.6452C96.6452 40.6245 96.5657 40.2782 96.4066 39.9766C96.2475 39.6716 96.0238 39.4313 95.7354 39.2557C95.4504 39.08 95.1156 38.9922 94.7312 38.9922C94.3136 38.9922 93.949 39.0949 93.6374 39.3004C93.3292 39.5026 93.0906 39.7678 92.9215 40.0959C92.7558 40.4207 92.6729 40.7737 92.6729 41.1548V42.0249C92.6729 42.5353 92.7624 42.9695 92.9414 43.3274C93.1237 43.6854 93.3772 43.9588 93.7021 44.1477C94.0269 44.3333 94.4064 44.4261 94.8406 44.4261C95.1223 44.4261 95.3791 44.3864 95.6112 44.3068C95.8432 44.224 96.0437 44.1013 96.2127 43.9389C96.3817 43.7765 96.511 43.576 96.6005 43.3374L98.0075 43.5909C97.8948 44.0052 97.6926 44.3681 97.4009 44.6797C97.1126 44.9879 96.7496 45.2282 96.3121 45.4006C95.878 45.5696 95.3825 45.6541 94.8256 45.6541ZM103.576 45.5V35.3182H105.112V44.1776H109.725V45.5H103.576ZM111.359 45.5V37.8636H112.845V45.5H111.359ZM112.109 36.6854C111.851 36.6854 111.629 36.5992 111.443 36.4268C111.261 36.2512 111.17 36.0424 111.17 35.8004C111.17 35.5552 111.261 35.3464 111.443 35.174C111.629 34.9983 111.851 34.9105 112.109 34.9105C112.368 34.9105 112.588 34.9983 112.771 35.174C112.956 35.3464 113.049 35.5552 113.049 35.8004C113.049 36.0424 112.956 36.2512 112.771 36.4268C112.588 36.5992 112.368 36.6854 112.109 36.6854ZM114.845 45.5V37.8636H116.272V39.1065H116.366C116.525 38.6856 116.786 38.3575 117.147 38.1222C117.508 37.8835 117.941 37.7642 118.444 37.7642C118.955 37.7642 119.382 37.8835 119.727 38.1222C120.075 38.3608 120.332 38.6889 120.498 39.1065H120.577C120.76 38.6989 121.05 38.3741 121.447 38.1321C121.845 37.8868 122.319 37.7642 122.869 37.7642C123.562 37.7642 124.127 37.9813 124.564 38.4155C125.005 38.8497 125.226 39.5043 125.226 40.3793V45.5H123.739V40.5185C123.739 40.0014 123.598 39.6269 123.317 39.3949C123.035 39.1629 122.698 39.0469 122.307 39.0469C121.823 39.0469 121.447 39.196 121.179 39.4943C120.91 39.7893 120.776 40.1688 120.776 40.6328V45.5H119.295V40.424C119.295 40.0097 119.165 39.6766 118.907 39.4247C118.648 39.1728 118.312 39.0469 117.898 39.0469C117.616 39.0469 117.356 39.1214 117.117 39.2706C116.882 39.4164 116.691 39.6203 116.545 39.8821C116.403 40.1439 116.331 40.4472 116.331 40.7919V45.5H114.845ZM127.218 45.5V37.8636H128.705V45.5H127.218ZM127.969 36.6854C127.71 36.6854 127.488 36.5992 127.303 36.4268C127.12 36.2512 127.029 36.0424 127.029 35.8004C127.029 35.5552 127.12 35.3464 127.303 35.174C127.488 34.9983 127.71 34.9105 127.969 34.9105C128.227 34.9105 128.448 34.9983 128.63 35.174C128.816 35.3464 128.908 35.5552 128.908 35.8004C128.908 36.0424 128.816 36.2512 128.63 36.4268C128.448 36.5992 128.227 36.6854 127.969 36.6854ZM134.269 37.8636V39.0568H130.098V37.8636H134.269ZM131.216 36.0341H132.703V43.2578C132.703 43.5462 132.746 43.7633 132.832 43.9091C132.918 44.0516 133.029 44.1494 133.165 44.2024C133.305 44.2521 133.455 44.277 133.618 44.277C133.737 44.277 133.841 44.2687 133.931 44.2521C134.02 44.2356 134.09 44.2223 134.14 44.2124L134.408 45.4403C134.322 45.4735 134.199 45.5066 134.04 45.5398C133.881 45.5762 133.682 45.5961 133.444 45.5994C133.053 45.6061 132.688 45.5365 132.35 45.3906C132.012 45.2448 131.738 45.0194 131.53 44.7145C131.321 44.4096 131.216 44.0268 131.216 43.5661V36.0341ZM139.123 45.6541C138.37 45.6541 137.722 45.4934 137.179 45.1719C136.638 44.8471 136.221 44.3913 135.926 43.8047C135.634 43.2147 135.488 42.5237 135.488 41.7315C135.488 40.9493 135.634 40.2599 135.926 39.6634C136.221 39.0668 136.632 38.6011 137.159 38.2663C137.689 37.9316 138.309 37.7642 139.018 37.7642C139.449 37.7642 139.867 37.8355 140.271 37.978C140.675 38.1205 141.038 38.3442 141.36 38.6491C141.681 38.9541 141.935 39.3501 142.12 39.8374C142.306 40.3213 142.399 40.9096 142.399 41.6023V42.1293H136.328V41.0156H140.942C140.942 40.6245 140.863 40.2782 140.703 39.9766C140.544 39.6716 140.321 39.4313 140.032 39.2557C139.747 39.08 139.413 38.9922 139.028 38.9922C138.61 38.9922 138.246 39.0949 137.934 39.3004C137.626 39.5026 137.387 39.7678 137.218 40.0959C137.053 40.4207 136.97 40.7737 136.97 41.1548V42.0249C136.97 42.5353 137.059 42.9695 137.238 43.3274C137.421 43.6854 137.674 43.9588 137.999 44.1477C138.324 44.3333 138.703 44.4261 139.137 44.4261C139.419 44.4261 139.676 44.3864 139.908 44.3068C140.14 44.224 140.341 44.1013 140.51 43.9389C140.679 43.7765 140.808 43.576 140.897 43.3374L142.304 43.5909C142.192 44.0052 141.989 44.3681 141.698 44.6797C141.409 44.9879 141.047 45.2282 140.609 45.4006C140.175 45.5696 139.679 45.6541 139.123 45.6541ZM146.907 45.6491C146.29 45.6491 145.74 45.4917 145.256 45.1768C144.776 44.8587 144.398 44.4062 144.123 43.8196C143.851 43.2296 143.715 42.522 143.715 41.6967C143.715 40.8714 143.853 40.1655 144.128 39.5788C144.406 38.9922 144.787 38.5431 145.271 38.2315C145.755 37.92 146.304 37.7642 146.917 37.7642C147.391 37.7642 147.772 37.8438 148.06 38.0028C148.352 38.1586 148.577 38.3409 148.736 38.5497C148.899 38.7585 149.025 38.9425 149.114 39.1016H149.204V35.3182H150.69V45.5H149.238V44.3118H149.114C149.025 44.4742 148.895 44.6598 148.726 44.8686C148.561 45.0774 148.332 45.2597 148.04 45.4155C147.749 45.5713 147.371 45.6491 146.907 45.6491ZM147.235 44.3814C147.662 44.3814 148.024 44.2687 148.319 44.0433C148.617 43.8146 148.842 43.4981 148.995 43.0938C149.151 42.6894 149.229 42.2187 149.229 41.6818C149.229 41.1515 149.152 40.6875 149 40.2898C148.847 39.892 148.624 39.5821 148.329 39.3601C148.034 39.138 147.669 39.027 147.235 39.027C146.787 39.027 146.415 39.143 146.116 39.375C145.818 39.607 145.593 39.9235 145.44 40.3246C145.291 40.7256 145.216 41.178 145.216 41.6818C145.216 42.1922 145.293 42.6513 145.445 43.0589C145.598 43.4666 145.823 43.7898 146.121 44.0284C146.423 44.2637 146.794 44.3814 147.235 44.3814Z" fill="white"/>
</svg>
